<?xml version="1.0" standalone="no"?>
<!DOCTYPE svg PUBLIC "-//W3C//DTD SVG 20010904//EN"
 "http://www.w3.org/TR/2001/REC-SVG-20010904/DTD/svg10.dtd">
<svg version="1.0" xmlns="http://www.w3.org/2000/svg"
 width="512.000000pt" height="512.000000pt" viewBox="0 0 512.000000 512.000000"
 preserveAspectRatio="xMidYMid meet">
<metadata>
Created by potrace 1.11, written by Peter Selinger 2001-2013
</metadata>
<g transform="translate(0.000000,512.000000) scale(0.100000,-0.100000)"
fill="#000000" stroke="none">
<path d="M2059 4935 c-5 -20 -4 -32 3 -47 5 -10 5 -18 1 -18 -5 0 -8 -22 -8
-50 0 -27 4 -50 10 -50 7 0 7 -3 0 -8 -13 -9 -14 -65 0 -74 6 -5 7 -8 0 -8 -6
0 -10 -16 -9 -35 1 -19 -2 -32 -7 -29 -5 3 -9 0 -9 -7 0 -7 -3 -9 -7 -6 -3 4
-15 -1 -26 -10 -15 -13 -18 -14 -12 -3 8 13 6 13 -8 1 -9 -7 -14 -17 -12 -22
3 -4 -4 -6 -15 -4 -11 2 -20 -1 -20 -6 0 -6 -4 -8 -9 -5 -5 4 -11 2 -13 -3 -1
-5 -10 -11 -18 -13 -8 -2 -21 -9 -28 -16 -8 -7 -18 -9 -24 -6 -7 4 -8 2 -4 -4
4 -8 0 -12 -12 -12 -10 0 -27 -9 -37 -20 -10 -11 -26 -20 -37 -20 -10 0 -18
-4 -18 -10 0 -5 -5 -10 -11 -10 -6 0 -41 -15 -79 -34 -37 -19 -71 -33 -74 -30
-3 2 -4 1 -1 -3 5 -7 -54 -37 -67 -35 -5 1 -8 -3 -8 -10 0 -6 -3 -9 -6 -5 -4
3 -12 1 -20 -6 -30 -27 -43 -37 -49 -37 -3 0 -3 6 0 13 4 6 -2 2 -13 -10 -11
-12 -23 -19 -26 -15 -4 3 -11 0 -16 -8 -5 -8 -13 -15 -17 -15 -4 -1 -28 -12
-53 -25 -25 -13 -48 -23 -52 -22 -5 1 -8 -3 -8 -9 0 -5 -4 -8 -9 -4 -5 3 -17
-2 -25 -11 -9 -8 -16 -12 -16 -8 0 3 -7 1 -15 -6 -8 -7 -15 -9 -15 -4 0 4 -7
-1 -15 -12 -8 -10 -15 -15 -15 -10 0 5 -8 2 -17 -7 -18 -15 -22 -17 -44 -17
-5 0 -7 -4 -4 -10 3 -5 0 -10 -8 -10 -22 0 -78 -31 -72 -40 3 -4 -4 -6 -15 -3
-11 3 -20 0 -20 -6 0 -6 -10 -11 -22 -11 -12 0 -19 -3 -15 -6 7 -7 -100 -63
-121 -64 -7 0 -10 -5 -6 -11 4 -7 1 -10 -7 -7 -8 3 -31 -6 -51 -19 -21 -13
-38 -20 -38 -16 0 5 -5 0 -11 -9 -5 -10 -18 -18 -27 -18 -9 0 -26 -7 -36 -15
-10 -8 -22 -12 -27 -10 -4 3 -11 0 -15 -6 -5 -8 -3 -9 6 -4 8 5 11 4 6 -3 -3
-6 -15 -9 -25 -7 -11 2 -22 -3 -25 -11 -3 -9 -10 -12 -16 -9 -5 3 -10 1 -10
-5 0 -7 -7 -10 -15 -7 -8 4 -17 1 -21 -5 -5 -7 -2 -8 6 -3 9 5 11 4 6 -3 -4
-7 -16 -12 -27 -12 -11 0 -17 -4 -14 -10 3 -5 3 -15 -1 -22 -11 -17 -11 -58
-1 -58 5 0 4 -7 -3 -15 -7 -9 -8 -15 -2 -15 6 0 9 -8 7 -17 -2 -10 -4 -18 -5
-18 -7 0 -5 -47 2 -51 5 -3 4 -12 -3 -20 -9 -11 -9 -14 0 -14 8 0 9 -5 1 -19
-7 -14 -7 -22 0 -26 8 -5 7 -11 -1 -21 -7 -9 -8 -14 -1 -14 6 0 9 -8 7 -17 -2
-10 -4 -18 -5 -18 -1 0 -3 -12 -4 -27 -1 -16 2 -28 7 -28 5 0 4 -7 -3 -15 -7
-9 -8 -15 -2 -15 6 0 9 -8 7 -17 -2 -10 -4 -18 -5 -18 -7 0 -5 -47 2 -51 5 -3
4 -12 -3 -20 -7 -9 -8 -14 -1 -14 6 0 9 -8 7 -17 -2 -10 -4 -18 -5 -18 -1 0
-3 -12 -4 -27 -1 -16 2 -28 7 -28 5 0 4 -7 -3 -15 -8 -10 -9 -15 -1 -15 7 0 8
-8 2 -22 -5 -13 -5 -32 -1 -43 4 -11 4 -27 -1 -36 -6 -11 -3 -21 7 -30 17 -14
93 -19 101 -6 3 4 10 4 16 -1 14 -10 127 -9 143 1 6 3 14 3 18 -1 10 -9 126
-10 132 0 3 4 16 3 29 -2 18 -7 25 -6 25 3 0 8 3 8 8 2 9 -14 55 -13 64 0 5 7
8 6 8 -1 0 -11 94 -13 105 -2 4 4 17 4 29 0 26 -9 47 -9 63 1 6 4 14 4 17 -1
6 -9 127 -9 142 1 6 3 14 3 18 -1 10 -9 126 -10 132 0 3 4 16 3 29 -2 18 -7
25 -6 25 3 0 8 3 8 8 2 9 -14 55 -13 64 0 5 7 8 6 8 -1 0 -11 94 -13 105 -2 4
4 17 4 29 0 26 -9 47 -9 63 1 6 4 14 4 17 -1 6 -9 127 -9 142 1 6 3 14 3 18
-1 10 -9 126 -10 132 0 3 4 16 3 29 -2 18 -7 25 -6 25 3 0 8 3 8 8 2 6 -9 35
-11 76 -6 5 1 3 7 -3 14 -6 8 -8 17 -4 20 3 4 8 23 10 43 3 27 1 34 -9 28 -10
-6 -10 -4 -2 7 6 8 10 48 9 89 -1 41 3 81 9 89 9 12 8 13 -3 7 -10 -7 -12 -3
-6 14 6 17 4 21 -6 14 -11 -6 -12 -5 -3 7 6 8 10 22 9 31 -2 10 1 20 6 24 5 3
6 11 2 17 -14 22 -14 49 -1 41 10 -6 10 -4 0 8 -14 17 -13 53 2 77 6 10 5 12
-3 7 -15 -10 -11 25 4 36 6 5 6 8 -2 8 -6 0 -11 13 -11 29 1 17 4 30 7 29 3 0
8 1 11 2 17 6 50 5 50 -2 0 -5 6 -6 13 -1 17 11 31 10 39 -2 5 -6 8 -5 8 3 0
9 5 10 18 3 11 -6 24 -6 35 0 12 7 17 6 17 -1 0 -6 5 -8 13 -3 18 11 61 10 70
-2 6 -7 10 -6 14 2 3 9 10 10 22 3 10 -5 21 -6 25 -2 10 10 66 9 66 -1 0 -4 5
-5 12 -1 18 12 58 11 58 -1 0 -6 3 -7 8 0 9 12 62 14 62 2 0 -4 6 -5 13 0 18
11 37 12 38 2 3 -20 5 -24 13 -38 6 -9 5 -12 -1 -8 -6 4 -10 -6 -9 -23 1 -17
6 -30 11 -30 6 0 6 -3 0 -8 -14 -9 -14 -65 0 -74 7 -5 7 -8 0 -8 -6 0 -11 -16
-11 -35 0 -19 5 -35 11 -35 7 0 7 -3 0 -8 -14 -9 -14 -65 0 -74 7 -5 7 -8 0
-8 -6 0 -10 -29 -11 -69 0 -42 4 -67 10 -64 5 4 6 1 1 -8 -14 -21 -15 -60 -3
-53 7 5 8 2 3 -7 -14 -22 -15 -60 -2 -52 8 4 8 2 -1 -9 -10 -13 -10 -17 5 -23
27 -12 63 -13 63 -3 0 5 6 6 13 1 16 -10 127 -11 133 -1 3 4 16 3 29 -2 18 -7
25 -6 25 3 0 8 3 8 8 2 9 -14 55 -13 64 0 5 7 8 6 8 -1 0 -9 93 -12 110 -4 3
1 9 2 13 1 40 -7 68 -7 73 0 3 5 11 6 17 2 17 -10 97 -11 103 -1 3 5 11 5 17
1 17 -11 57 -11 57 -1 0 5 5 6 11 2 18 -11 69 -13 75 -3 3 5 11 6 17 2 17 -11
57 -11 57 -1 0 5 7 5 18 0 20 -10 87 -10 97 0 4 4 18 3 31 -2 17 -7 24 -6 24
3 0 8 3 8 8 2 9 -14 55 -13 64 0 5 7 8 6 8 -1 0 -12 88 -13 107 -1 6 4 14 3
17 -1 6 -10 52 -10 62 0 3 4 17 3 30 -2 17 -7 24 -6 24 3 0 8 3 8 8 2 9 -14
55 -13 64 0 5 7 8 6 8 -1 0 -11 94 -13 106 -2 3 4 15 3 25 -2 12 -7 20 -7 24
0 4 6 12 7 18 3 17 -11 57 -11 57 -1 0 5 5 6 11 2 18 -11 69 -13 75 -3 3 5 10
6 16 3 6 -4 14 0 19 7 5 8 3 17 -4 21 -7 4 -7 8 -2 8 11 0 12 71 1 89 -4 6 -2
11 3 11 13 0 10 22 -4 32 -6 5 -5 8 3 8 10 0 10 5 2 20 -6 11 -7 20 -3 20 10
0 9 52 -1 68 -4 7 -2 12 3 12 13 0 10 22 -4 32 -6 5 -5 8 3 8 10 0 10 5 2 20
-6 11 -7 20 -2 20 4 0 8 9 8 20 0 11 -4 20 -9 20 -4 0 -5 5 -1 11 9 15 8 124
-1 139 -3 5 -3 10 2 10 4 0 9 11 9 25 1 14 -3 25 -8 25 -6 0 -5 6 2 15 9 11 9
15 1 15 -7 0 -9 5 -5 12 9 14 9 82 0 96 -4 7 -3 12 3 12 12 0 3 62 -11 75 -8
7 -9 6 -4 -2 4 -8 -6 -5 -23 5 -17 9 -31 21 -31 25 0 5 -4 5 -10 2 -5 -3 -10
-1 -10 5 0 7 -7 10 -15 6 -8 -3 -15 -1 -15 4 0 6 -6 10 -14 10 -7 0 -19 7 -26
15 -7 9 -19 14 -27 11 -7 -3 -13 -1 -13 4 0 6 -7 10 -15 10 -8 0 -15 5 -15 10
0 6 -3 10 -7 9 -16 -2 -53 14 -53 23 0 5 -4 7 -9 3 -5 -3 -16 1 -24 9 -8 8
-17 12 -21 9 -3 -4 -6 -1 -6 6 0 7 -4 9 -10 6 -5 -3 -10 -1 -10 5 0 6 -4 8
-10 5 -5 -3 -10 -1 -10 4 0 6 -6 10 -12 9 -7 -2 -12 3 -11 9 2 8 -5 11 -20 9
-12 -2 -31 5 -42 14 -11 10 -27 20 -35 22 -8 2 -20 9 -26 16 -5 8 -22 15 -36
15 -14 1 -24 5 -22 8 4 7 -47 33 -58 31 -5 -1 -8 3 -8 9 0 5 -4 8 -9 4 -5 -3
-17 3 -27 12 -10 10 -19 17 -21 16 -8 -6 -93 38 -93 48 0 7 -3 9 -7 6 -3 -4
-13 -1 -21 6 -13 10 -14 9 -7 -2 4 -7 -7 -3 -26 10 -19 13 -35 27 -37 31 -2 4
-9 5 -17 2 -7 -3 -19 3 -26 13 -8 10 -18 18 -24 18 -17 1 -70 29 -78 42 -4 7
-14 10 -22 7 -8 -4 -15 -1 -15 5 0 6 -9 11 -20 11 -11 0 -20 5 -20 11 0 5 -4
7 -10 4 -5 -3 -10 -1 -10 6 0 7 -3 9 -7 6 -3 -4 -15 0 -25 10 -10 9 -18 13
-18 9 0 -8 -83 34 -91 47 -4 5 -12 6 -18 3 -6 -4 -14 0 -17 8 -3 9 -10 14 -14
11 -5 -3 -15 2 -23 10 -9 8 -23 15 -32 15 -9 0 -13 4 -10 10 3 6 -1 7 -9 4 -9
-4 -18 1 -22 10 -3 9 -10 13 -16 10 -5 -3 -16 2 -24 12 -9 11 -12 12 -8 4 5
-10 0 -9 -14 4 -12 11 -22 15 -22 10 0 -5 -4 -4 -8 3 -4 6 -14 13 -22 15 -8 2
-21 9 -28 16 -8 7 -18 10 -23 7 -5 -4 -9 1 -9 9 0 9 -6 16 -12 16 -9 0 -9 3
-3 8 13 9 14 102 2 102 -5 0 -5 6 1 13 15 18 15 29 0 38 -7 5 -8 9 -2 9 6 0
10 24 9 63 l-1 62 -512 3 c-282 1 -513 0 -513 -3z m481 -845 c-8 -5 -10 -10
-4 -10 6 0 14 3 18 7 10 11 39 13 51 4 5 -5 20 -7 33 -6 12 1 22 -2 22 -7 0
-5 4 -7 9 -3 5 3 12 1 16 -5 4 -6 11 -8 16 -5 5 4 9 1 9 -4 0 -6 7 -11 15 -11
8 0 15 -4 15 -10 0 -5 5 -10 10 -10 14 0 79 -68 72 -75 -4 -3 -1 -10 6 -14 7
-4 14 -18 15 -29 1 -12 4 -22 7 -22 4 0 7 -6 7 -13 0 -7 3 -25 7 -40 4 -16 2
-27 -4 -27 -5 0 -10 -6 -10 -13 0 -15 -36 -17 -57 -4 -9 6 -11 3 -6 -9 5 -13
3 -15 -13 -7 -10 5 -41 9 -69 7 -27 -1 -58 3 -67 8 -14 7 -16 5 -11 -8 5 -13
2 -15 -13 -7 -10 5 -50 8 -89 7 -38 0 -78 3 -87 8 -14 7 -16 5 -11 -8 4 -12 3
-15 -5 -10 -21 13 -51 15 -58 4 -4 -7 -9 -6 -14 3 -7 10 -11 10 -24 0 -11 -9
-16 -10 -16 -2 0 6 -7 11 -15 11 -16 0 -16 25 -1 49 6 10 5 12 -2 7 -7 -4 -12
-2 -12 3 0 6 5 11 11 11 5 0 7 4 4 10 -3 5 1 22 9 38 8 16 12 32 9 36 -4 3 -1
6 5 6 6 0 19 14 27 30 9 17 20 28 25 25 6 -4 10 0 10 7 0 14 53 48 76 48 9 0
13 4 10 9 -3 5 1 12 10 15 10 4 13 2 8 -7 -5 -8 -2 -7 9 2 9 7 17 10 17 5 0
-4 5 -3 12 4 7 7 17 12 23 12 5 0 3 -5 -5 -10z m-1707 -466 c-5 -14 -3 -15 15
-5 16 8 22 9 22 1 0 -6 5 -8 13 -3 6 4 24 8 40 8 24 1 32 -6 28 -27 0 -5 4 -8
10 -8 8 0 8 -4 0 -13 -8 -10 -7 -17 1 -25 8 -8 8 -12 1 -12 -13 0 -12 -42 2
-52 6 -5 6 -8 -2 -8 -12 0 -12 -24 0 -36 3 -4 3 -12 0 -18 -11 -17 -11 -56 0
-56 6 0 5 -5 -1 -12 -15 -19 -15 -30 0 -39 9 -6 10 -9 1 -9 -7 0 -10 -7 -6
-17 4 -11 3 -14 -5 -9 -7 4 -12 3 -12 -3 0 -5 -8 -8 -17 -6 -10 2 -18 4 -18 5
0 1 -10 3 -22 4 -13 2 -23 -2 -23 -7 0 -5 -8 -3 -17 4 -11 10 -14 10 -9 2 4
-7 3 -13 -2 -13 -22 0 -36 86 -20 122 5 10 3 20 -4 24 -7 5 -8 3 -3 -6 5 -9 4
-11 -4 -6 -7 5 -9 12 -3 19 5 7 9 50 8 97 -1 61 3 90 14 103 18 21 21 22 13 1z
m623 -26 c-2 -16 1 -28 7 -28 5 0 4 -7 -4 -16 -10 -13 -10 -17 0 -24 8 -5 10
-13 5 -21 -12 -19 -12 -49 -1 -49 5 0 4 -7 -3 -15 -10 -12 -10 -15 0 -15 10 0
10 -3 0 -15 -9 -11 -9 -15 -1 -15 7 0 9 -5 4 -12 -12 -21 -12 -38 0 -38 7 0 5
-5 -3 -10 -11 -7 -11 -10 -2 -10 9 0 10 -5 3 -19 -6 -10 -8 -21 -5 -23 3 -3
-2 -8 -10 -11 -9 -4 -18 -2 -21 3 -4 6 -14 6 -27 -1 -15 -8 -19 -8 -14 0 5 8
0 8 -17 2 -17 -7 -29 -6 -37 2 -10 9 -11 9 -5 -2 5 -9 4 -12 -3 -7 -12 7 -11
40 1 52 3 4 3 12 0 18 -13 20 -12 67 0 59 8 -4 7 -1 -1 9 -14 17 -13 53 2 77
6 10 5 12 -3 7 -15 -10 -11 25 4 36 6 5 6 8 -1 8 -14 0 -16 59 -2 74 6 6 39
12 74 11 63 0 63 0 60 -27z m417 19 c11 10 73 10 83 -1 13 -15 14 -46 2 -46
-6 0 -5 -6 2 -15 10 -12 10 -15 -1 -15 -11 0 -11 -2 1 -10 13 -9 13 -10 0 -10
-12 0 -12 -2 -1 -9 9 -6 10 -10 2 -16 -9 -5 -9 -10 0 -21 9 -11 8 -14 -2 -14
-11 0 -11 -2 1 -10 13 -9 13 -10 0 -10 -12 0 -12 -2 -1 -9 9 -6 10 -10 2 -16
-9 -5 -9 -10 0 -21 9 -11 8 -14 -2 -15 -10 0 -11 -2 -2 -6 9 -3 10 -10 3 -23
-7 -13 -7 -21 1 -26 8 -4 7 -9 -2 -15 -12 -8 -11 -11 1 -19 13 -9 13 -10 0
-11 -8 0 -25 -2 -37 -3 -13 -2 -23 2 -23 8 0 6 -4 5 -9 -3 -6 -9 -11 -10 -15
-2 -5 7 -15 7 -32 1 -17 -7 -23 -7 -19 0 3 6 2 10 -2 10 -12 0 -10 103 2 112
7 5 6 8 0 8 -12 0 -13 59 -2 77 4 7 3 14 -2 17 -5 4 -8 14 -6 24 1 9 -2 26 -8
37 -9 18 -9 19 7 6 15 -13 16 -12 7 12 -8 21 -7 28 7 36 10 6 21 6 28 0 6 -5
14 -6 17 -2z m1363 1 c-4 7 -1 12 9 12 9 0 13 -4 10 -10 -4 -7 3 -7 20 0 39
15 65 -20 42 -57 -5 -7 -4 -13 1 -13 10 0 9 -50 -2 -68 -4 -7 -3 -12 2 -12 11
0 8 -72 -4 -91 -5 -8 -3 -9 5 -4 10 6 11 3 2 -13 -7 -13 -7 -23 -2 -27 12 -7
10 -45 -2 -45 -4 0 -6 -4 -3 -8 3 -5 -1 -9 -9 -9 -8 0 -15 5 -15 11 0 6 -4 5
-9 -2 -4 -8 -12 -14 -16 -14 -4 0 -12 6 -16 14 -7 11 -9 11 -9 -1 0 -10 -3
-11 -14 -2 -10 8 -16 9 -21 1 -3 -6 -11 -8 -16 -4 -5 3 -7 10 -4 15 4 5 2 9
-3 9 -11 0 -9 30 2 49 5 7 4 16 -1 20 -11 7 -12 52 -1 45 4 -3 8 0 8 5 0 6 -4
11 -9 11 -5 0 -8 11 -7 24 0 13 4 22 9 19 4 -2 7 1 7 6 0 6 -4 11 -9 11 -5 0
-8 11 -7 24 0 13 4 22 9 19 4 -2 7 0 7 6 0 5 -6 11 -12 14 -10 3 -10 7 1 20 7
10 9 17 4 17 -5 0 -10 7 -10 15 0 8 3 12 7 10 3 -2 12 0 20 5 9 5 20 4 29 -3
12 -9 13 -9 7 1z m499 1 c-4 -5 4 -5 19 1 17 6 27 6 32 -1 4 -8 10 -7 17 0 6
6 14 11 17 11 3 0 5 -63 5 -139 -1 -95 2 -138 9 -134 6 3 6 0 -1 -7 -6 -7 -9
-19 -6 -28 5 -11 3 -13 -8 -7 -11 7 -12 6 -2 -6 7 -8 8 -20 4 -28 -10 -16 -22
-16 -32 1 -7 11 -9 11 -9 -1 0 -10 -3 -11 -14 -2 -11 9 -16 9 -21 0 -6 -8 -10
-7 -16 2 -5 8 -9 9 -9 3 0 -6 -7 -11 -15 -11 -8 0 -12 4 -10 8 3 4 -1 9 -8 12
-14 5 -16 75 -3 96 4 6 2 11 -5 11 -8 0 -8 4 1 15 10 12 10 15 0 15 -10 0 -10
3 0 15 10 12 10 15 0 15 -10 0 -10 3 0 15 7 8 9 15 4 15 -5 0 -9 11 -9 25 0
14 4 25 8 25 4 0 4 8 -2 17 -6 11 -6 24 0 35 5 10 6 18 2 18 -4 0 -3 4 4 8 18
11 54 12 48 1z m535 -2 c0 -4 6 -5 13 0 19 12 38 12 30 0 -4 -6 -1 -8 8 -5 11
4 14 -8 13 -67 -1 -40 -5 -79 -9 -86 -5 -7 -4 -10 2 -6 12 8 10 -54 -3 -74 -4
-7 -3 -9 3 -6 6 4 9 -10 9 -33 -1 -22 -5 -40 -9 -40 -5 0 -6 -4 -2 -9 3 -5 1
-12 -4 -15 -5 -4 -13 -2 -16 4 -5 8 -11 7 -21 -1 -11 -9 -14 -8 -14 2 0 9 -3
10 -8 4 -8 -12 -22 -13 -39 -2 -6 4 -15 2 -19 -4 -10 -16 -25 11 -18 34 3 9 0
17 -7 17 -8 0 -8 4 -1 13 12 14 12 24 1 55 -6 14 -5 21 0 17 6 -3 9 4 8 15 -1
11 -5 20 -10 20 -6 0 -6 5 0 13 10 13 11 56 1 72 -4 6 -3 17 1 24 5 7 6 22 4
32 -3 11 0 19 6 19 7 0 10 4 7 8 -3 5 13 8 35 8 21 0 39 -4 39 -9z"/>
<path d="M986 2851 c-4 -5 -18 -8 -32 -5 -18 3 -23 1 -18 -7 5 -9 3 -9 -7 -3
-21 14 -210 14 -202 0 3 -6 0 -5 -8 2 -16 15 -33 16 -23 0 5 -7 3 -8 -7 -2
-22 14 -80 15 -72 1 5 -9 3 -9 -8 -1 -17 13 -128 13 -148 0 -10 -7 -12 -6 -6
4 5 8 4 11 -2 7 -15 -9 -23 -57 -10 -57 7 0 7 -4 -1 -12 -15 -15 -16 -31 0
-22 7 4 8 3 4 -5 -5 -7 -5 -22 -2 -35 5 -19 12 -22 48 -21 24 0 49 4 57 9 8 6
12 5 8 0 -3 -5 26 -9 69 -9 42 0 74 4 74 10 0 6 3 6 8 0 9 -14 145 -13 154 0
5 7 8 7 8 0 0 -14 150 -13 150 0 0 6 3 6 8 0 9 -14 145 -13 154 0 5 7 8 7 8 0
0 -14 150 -13 150 0 0 6 3 6 8 0 9 -14 145 -13 154 0 5 7 8 7 8 0 0 -14 150
-13 150 0 0 6 3 6 8 0 9 -14 145 -13 154 0 5 7 8 7 8 0 0 -14 150 -13 150 0 0
6 3 6 8 0 9 -14 145 -13 154 0 5 7 8 7 8 0 0 -14 150 -13 150 0 0 6 3 6 8 0 9
-14 145 -13 154 0 5 7 8 7 8 0 0 -6 44 -10 110 -10 61 0 110 4 110 9 0 4 6 4
13 -1 14 -10 162 -11 172 -1 11 11 36 -3 28 -16 -4 -6 1 -5 10 2 9 8 21 11 26
8 5 -4 12 -2 16 3 3 6 12 8 20 5 8 -4 12 -11 8 -18 -5 -8 -3 -8 8 0 8 7 47 11
97 10 47 -2 82 2 82 7 0 6 5 6 13 0 14 -10 162 -11 172 -1 11 11 36 -3 28 -16
-4 -6 1 -5 10 2 9 8 21 11 26 8 5 -4 12 -2 16 3 3 6 12 8 20 5 8 -4 12 -11 8
-18 -5 -8 -3 -8 8 0 8 7 47 11 97 10 47 -2 82 2 82 7 0 6 5 6 13 0 14 -10 162
-11 172 -1 11 11 36 -3 28 -16 -4 -6 1 -5 10 2 9 8 21 11 26 8 5 -4 12 -2 16
3 3 6 12 8 20 5 8 -4 12 -11 8 -18 -5 -8 -3 -8 8 0 8 7 47 11 97 10 45 -2 82
1 82 6 0 5 6 6 12 1 19 -11 109 -12 102 -1 -4 6 1 6 13 0 20 -11 48 -11 59 0
10 11 34 -3 27 -16 -4 -6 1 -5 10 2 9 8 21 11 26 8 5 -4 12 -2 16 3 3 6 12 8
20 5 8 -4 12 -11 8 -18 -5 -8 -3 -8 8 0 8 7 47 11 97 10 45 -2 82 1 82 6 0 5
6 6 13 1 15 -10 77 -11 71 -1 -3 5 -1 8 3 8 5 0 9 27 9 60 0 33 -4 60 -9 60
-4 0 -6 4 -2 9 3 6 -3 8 -15 6 -11 -2 -22 0 -25 6 -4 5 -12 9 -18 9 -7 0 -6
-4 3 -10 19 -12 -49 -8 -69 4 -10 6 -12 5 -7 -2 9 -15 -16 -16 -31 -1 -8 8
-13 8 -17 0 -4 -6 -12 -11 -17 -11 -6 0 -7 4 -4 10 4 6 -2 7 -17 2 -13 -5 -53
-8 -90 -6 -49 1 -66 -1 -61 -10 3 -6 1 -6 -8 2 -16 15 -33 16 -23 0 5 -8 3 -8
-7 -2 -21 14 -210 14 -202 0 3 -6 0 -5 -8 2 -7 6 -17 12 -22 12 -4 0 -5 -6 -1
-12 6 -10 4 -10 -7 -2 -8 6 -36 11 -64 10 -27 -1 -58 1 -67 6 -10 5 -19 4 -23
-2 -7 -11 -33 -9 -54 4 -9 6 -12 5 -7 -2 7 -12 -42 -11 -63 2 -10 6 -12 5 -7
-2 9 -15 -16 -16 -31 -1 -8 8 -13 8 -17 0 -4 -6 -12 -11 -17 -11 -6 0 -8 4 -5
8 3 5 -1 9 -9 9 -8 0 -12 -4 -9 -8 6 -10 -47 -6 -65 5 -10 6 -12 5 -7 -2 9
-15 -16 -16 -31 -1 -8 8 -13 8 -17 0 -4 -6 -12 -11 -17 -11 -6 0 -7 4 -4 10 4
6 -2 7 -17 2 -13 -5 -53 -8 -90 -6 -49 1 -66 -1 -61 -10 3 -6 1 -6 -8 2 -16
15 -33 16 -23 0 5 -8 3 -8 -7 -2 -21 14 -210 14 -202 0 3 -6 0 -5 -8 2 -7 6
-17 12 -22 12 -4 0 -5 -6 -1 -12 6 -10 4 -10 -7 -2 -8 6 -36 11 -64 10 -27 -1
-58 1 -67 6 -10 5 -19 4 -23 -2 -7 -11 -33 -9 -54 4 -9 6 -12 5 -7 -2 7 -12
-42 -11 -63 2 -10 6 -12 5 -7 -2 9 -15 -16 -16 -31 -1 -8 8 -13 8 -17 0 -4 -6
-12 -11 -17 -11 -6 0 -8 4 -5 8 3 5 -1 9 -9 9 -8 0 -12 -4 -9 -8 6 -10 -47 -6
-65 5 -10 6 -12 5 -7 -2 9 -15 -16 -16 -31 -1 -8 8 -13 8 -17 0 -10 -15 -29
-14 -20 2 5 9 4 9 -6 0 -7 -6 -19 -9 -28 -6 -11 5 -13 3 -7 -7 6 -10 4 -11 -6
-4 -21 13 -140 13 -132 0 4 -6 0 -5 -9 2 -9 7 -32 11 -57 8 -23 -2 -44 0 -47
6 -4 5 -10 5 -17 0 -7 -5 -22 -8 -35 -6 -16 3 -21 0 -16 -8 5 -8 3 -8 -7 -2
-21 14 -210 14 -202 0 3 -6 0 -5 -8 2 -16 15 -33 16 -23 0 5 -7 3 -8 -7 -2
-21 13 -81 15 -73 2 5 -7 2 -8 -7 -2 -21 13 -140 13 -132 0 4 -6 0 -5 -9 2 -9
7 -32 11 -57 8 -23 -2 -44 0 -47 6 -4 5 -10 5 -17 0 -7 -5 -22 -8 -35 -6 -16
3 -21 0 -16 -8 5 -8 3 -8 -7 -2 -21 14 -210 14 -202 0 3 -6 0 -5 -8 2 -16 15
-33 16 -23 0 5 -7 3 -8 -7 -2 -21 13 -81 15 -73 2 5 -7 2 -8 -7 -2 -21 13
-140 13 -132 0 4 -6 0 -5 -8 1 -9 7 -33 11 -55 9 -21 -2 -44 1 -51 6 -7 5 -14
5 -17 -1z"/>
<path d="M2605 2599 c4 -10 -1 -15 -14 -15 -11 0 -17 4 -15 8 3 4 0 8 -5 8 -6
0 -11 -5 -11 -11 0 -6 -6 -9 -14 -6 -7 3 -24 -2 -37 -10 -12 -9 -19 -12 -16
-6 4 6 -5 10 -22 9 -16 -1 -29 -5 -28 -9 1 -5 -15 -14 -35 -21 -21 -8 -38 -11
-38 -7 0 3 -4 0 -9 -7 -4 -7 -16 -14 -25 -16 -10 -1 -21 -8 -25 -15 -4 -6 -17
-13 -29 -14 -12 0 -24 -7 -26 -14 -3 -7 -11 -13 -18 -13 -8 0 -21 -8 -29 -17
-9 -10 -26 -25 -37 -33 -12 -8 -22 -20 -22 -27 0 -6 -5 -15 -12 -19 -7 -5 -9
-2 -4 7 4 8 0 5 -8 -5 -9 -11 -16 -24 -16 -29 0 -4 -5 -5 -10 -2 -6 4 -10 3
-9 -2 4 -14 -13 -43 -21 -38 -4 3 -11 -6 -14 -19 -3 -14 -14 -32 -23 -42 -10
-9 -18 -24 -19 -32 -2 -8 -9 -19 -16 -23 -7 -5 -9 -9 -4 -9 5 0 1 -10 -10 -22
-10 -12 -13 -18 -7 -14 9 5 11 2 7 -8 -3 -9 -10 -14 -15 -11 -4 3 -6 -4 -4
-15 2 -11 0 -20 -5 -20 -5 0 -7 -9 -5 -20 2 -11 -2 -20 -8 -20 -7 0 -6 -4 3
-10 11 -7 11 -10 2 -10 -7 0 -10 -4 -7 -10 3 -5 0 -10 -7 -10 -10 0 -10 -2 1
-9 9 -6 10 -10 2 -16 -9 -5 -9 -11 1 -23 7 -9 8 -13 3 -10 -11 7 -13 -158 -2
-169 4 -3 1 -13 -6 -21 -9 -13 -9 -14 1 -8 11 7 17 -5 13 -28 -1 -4 3 -14 10
-22 6 -8 9 -20 6 -28 -3 -8 -1 -16 5 -18 6 -2 13 -15 15 -28 2 -13 10 -31 18
-40 8 -9 12 -20 8 -23 -3 -4 -1 -7 6 -7 7 0 10 -4 7 -9 -3 -5 1 -12 10 -15 8
-3 12 -10 9 -16 -3 -6 1 -13 9 -16 9 -3 16 -12 16 -20 0 -8 5 -14 10 -14 6 0
10 -7 10 -15 0 -8 5 -15 11 -15 5 0 7 -5 3 -12 -4 -7 -3 -8 5 -4 7 4 15 -2 20
-16 6 -13 10 -19 10 -14 1 5 13 -4 28 -20 15 -16 31 -28 35 -27 4 2 8 -2 8 -9
0 -6 3 -9 6 -5 4 3 15 -4 25 -16 10 -12 18 -18 19 -14 0 7 11 0 45 -31 8 -7
17 -13 20 -12 20 1 26 -1 21 -9 -3 -4 4 -8 17 -7 13 1 21 -4 19 -12 -1 -8 2
-11 8 -7 6 4 17 1 25 -5 12 -10 15 -10 15 0 0 9 6 8 19 -4 11 -10 25 -15 30
-11 6 3 11 1 11 -6 0 -8 5 -7 17 2 9 8 14 9 10 3 -9 -15 25 -24 47 -12 9 5 16
5 16 0 0 -10 30 -9 47 1 6 4 15 2 19 -4 5 -8 3 -9 -6 -4 -9 6 -11 4 -5 -4 5
-9 11 -9 17 -3 6 6 17 8 26 5 11 -5 13 -2 7 8 -6 11 -5 12 6 1 15 -14 33 -16
25 -3 -3 5 1 11 9 14 8 4 12 1 9 -7 -3 -7 4 -12 20 -12 14 0 22 4 20 8 -3 5
-10 5 -16 2 -7 -4 -8 -2 -4 4 4 8 15 8 31 2 17 -6 25 -6 25 1 0 6 5 7 10 4 6
-3 10 -1 10 5 0 6 5 8 10 5 6 -3 10 -2 10 4 0 6 7 8 15 5 8 -4 15 -2 15 4 0
10 47 27 63 23 5 -1 6 3 2 9 -3 5 3 10 14 10 12 0 20 6 18 13 -1 6 4 11 11 10
6 -2 12 2 12 8 0 5 4 8 10 4 5 -3 18 3 29 14 12 12 22 16 29 9 6 -6 12 -6 17
2 4 7 17 0 37 -21 24 -25 28 -33 17 -40 -11 -7 -10 -9 4 -9 9 0 17 -4 17 -9 0
-6 9 -9 20 -8 12 1 18 7 16 14 -3 7 -2 13 2 13 4 0 8 9 8 20 0 11 -4 20 -9 20
-5 0 -4 7 3 15 10 12 10 15 0 15 -10 0 -10 3 0 15 9 11 9 15 1 15 -7 0 -9 5
-5 12 12 19 12 48 1 48 -5 0 -5 6 2 13 8 10 7 17 -1 25 -9 9 -9 12 0 12 9 0
10 5 3 18 -6 11 -6 24 0 35 7 12 6 17 -2 17 -8 0 -9 4 0 13 8 10 7 17 -1 25
-9 9 -9 12 0 12 10 0 10 5 1 21 -8 16 -8 20 1 14 9 -6 9 -3 1 13 -8 15 -8 22
2 25 6 3 2 6 -10 6 -17 1 -21 5 -16 18 5 12 1 11 -15 -5 -24 -24 -29 -37 -9
-26 9 6 9 4 1 -7 -6 -8 -11 -30 -13 -49 -1 -19 -6 -37 -11 -38 -6 -2 -7 -8 -4
-13 3 -6 0 -16 -6 -24 -7 -8 -9 -15 -4 -15 5 0 4 -4 -1 -8 -6 -4 -19 -24 -30
-45 -11 -21 -28 -43 -38 -48 -10 -6 -15 -13 -13 -18 6 -9 -30 -41 -38 -34 -6
6 -10 -12 -7 -29 0 -4 -6 -5 -14 -2 -10 4 -15 0 -15 -11 0 -9 -5 -13 -11 -10
-6 4 -17 -3 -26 -15 -8 -12 -21 -19 -29 -16 -8 3 -14 1 -14 -4 0 -6 -12 -10
-26 -10 -14 0 -23 -4 -19 -10 5 -9 -23 -15 -47 -11 -5 0 -8 -3 -8 -9 0 -5 -7
-6 -17 -3 -12 5 -14 3 -8 -8 7 -11 6 -12 -6 -2 -11 9 -19 9 -26 2 -6 -6 -18
-6 -35 0 -18 7 -29 6 -37 -2 -8 -8 -11 -7 -11 3 -1 10 -6 8 -19 -7 -16 -19
-20 -20 -25 -7 -4 10 -2 13 6 8 7 -4 8 -3 4 5 -4 6 -13 8 -19 4 -17 -11 -38
-13 -32 -3 5 9 -44 24 -53 16 -3 -3 -12 2 -21 12 -9 9 -20 18 -26 19 -14 2
-72 33 -62 33 4 0 -11 18 -33 40 -22 22 -38 40 -35 40 4 0 -1 7 -9 16 -9 8
-16 22 -16 30 0 9 -5 12 -11 8 -7 -4 -10 -1 -7 7 3 8 -4 26 -14 42 -11 15 -15
27 -10 27 5 0 9 6 9 14 0 8 -5 14 -11 13 -5 -1 -11 5 -12 13 0 8 -2 17 -4 20
-1 3 -4 19 -5 35 -2 17 -3 35 -4 40 -1 6 -6 3 -11 -5 -12 -19 -12 -13 -1 27 5
17 6 34 3 38 -11 11 -10 35 1 35 8 0 7 4 -2 9 -7 5 -11 13 -7 19 3 6 3 13 -2
16 -10 6 -9 66 1 83 4 7 0 16 -10 22 -10 6 -13 11 -7 11 6 0 10 21 9 54 -1 30
2 53 7 50 4 -3 8 2 8 10 0 9 -6 16 -12 16 -10 0 -9 3 1 9 7 5 11 15 9 22 -3 8
-1 22 4 33 8 14 7 17 -4 10 -10 -6 -11 -5 -1 8 7 8 10 18 6 21 -3 4 -2 7 4 7
6 0 9 11 8 25 -2 14 2 25 8 25 5 0 8 3 5 6 -4 3 0 20 7 39 8 18 11 35 8 38 -3
4 2 9 11 13 12 5 14 10 6 19 -8 10 -7 16 3 22 16 9 42 54 39 66 -1 4 5 7 13 7
9 0 21 11 27 25 6 13 19 27 30 31 10 3 16 10 13 15 -4 5 1 9 9 9 9 0 16 5 16
11 0 5 5 7 10 4 6 -3 13 1 16 9 3 9 10 14 14 11 5 -3 11 -1 15 4 3 5 14 8 25
6 12 -2 18 0 15 6 -7 10 -3 10 130 13 86 2 130 -5 166 -24 10 -5 21 -4 28 3
10 9 12 9 9 -3 -2 -8 4 -15 12 -15 8 0 21 -6 28 -13 8 -7 18 -9 24 -6 7 4 8 2
4 -4 -4 -7 -1 -12 9 -12 9 0 13 -4 10 -10 -3 -6 1 -7 9 -4 9 3 16 1 16 -6 0
-6 5 -8 12 -4 8 5 9 2 5 -9 -3 -9 -1 -19 5 -23 7 -5 8 -2 4 7 -4 8 0 5 8 -5 9
-11 16 -16 16 -11 0 6 12 -7 27 -28 14 -20 30 -37 34 -37 7 0 33 -60 30 -72 0
-5 3 -8 8 -8 10 0 23 -53 24 -97 1 -25 6 -32 24 -36 15 -3 23 1 23 10 0 8 4
12 8 9 4 -2 8 4 8 15 0 10 -4 19 -9 19 -5 0 -5 6 2 13 8 10 7 17 -1 25 -9 9
-9 12 2 12 11 0 11 3 2 12 -7 7 -8 17 -1 30 7 13 6 18 -2 18 -9 0 -9 3 0 14 8
10 9 16 1 21 -7 4 -7 12 0 26 8 13 7 19 0 19 -6 0 -8 5 -3 13 12 19 12 37 1
37 -7 0 -7 4 0 13 7 8 7 18 2 27 -5 9 -5 19 1 26 7 8 6 14 -1 19 -6 3 -8 11
-4 16 8 14 -28 7 -44 -8 -7 -7 -11 -17 -8 -21 6 -10 -29 -30 -59 -33 -29 -4
-85 11 -85 22 0 5 -6 9 -13 9 -7 0 -22 8 -33 18 -11 10 -25 17 -32 14 -6 -2
-15 3 -18 12 -3 8 -11 13 -18 10 -7 -3 -22 4 -35 15 -12 11 -29 17 -37 14 -8
-3 -20 -1 -27 5 -16 14 -77 23 -77 11 0 -5 -4 -9 -10 -9 -5 0 -6 7 -3 17 5 12
3 14 -8 7 -23 -14 -60 -16 -75 -3 -12 9 -13 9 -9 -2z"/>
<path d="M4067 2583 c-26 -15 -49 -17 -27 -3 9 6 10 10 3 10 -6 0 -14 -4 -18
-10 -3 -5 -12 -7 -20 -3 -11 4 -14 0 -9 -13 6 -15 4 -17 -6 -7 -11 10 -17 10
-29 0 -12 -10 -13 -9 -7 3 4 9 2 8 -7 -2 -8 -10 -17 -15 -20 -12 -3 3 -12 2
-19 -2 -7 -5 -19 -9 -27 -11 -8 -1 -17 -6 -20 -11 -3 -5 -23 -17 -43 -25 -21
-9 -38 -21 -38 -27 0 -6 -4 -9 -8 -6 -5 3 -21 -6 -37 -20 -15 -13 -33 -24 -38
-24 -6 0 -8 -3 -4 -6 9 -9 -19 -34 -37 -34 -9 0 -15 -6 -14 -12 2 -7 -2 -12
-9 -11 -7 2 -10 -3 -7 -11 3 -7 -2 -16 -10 -19 -9 -4 -16 -13 -16 -22 0 -8 -4
-15 -9 -15 -12 0 -71 -96 -64 -104 4 -3 1 -6 -5 -6 -7 0 -11 -6 -10 -12 2 -7
-2 -12 -9 -11 -9 2 -10 -4 -3 -23 8 -21 7 -25 -3 -21 -8 3 -14 -4 -15 -17 -1
-11 -4 -30 -6 -41 -3 -11 -5 -24 -5 -28 -1 -5 -5 -5 -11 -2 -5 3 -10 1 -10 -4
0 -6 5 -11 11 -11 8 0 8 -4 0 -13 -8 -10 -7 -17 2 -27 7 -8 8 -11 1 -7 -7 4
-14 -2 -17 -13 -3 -11 -2 -18 3 -15 4 2 8 -6 8 -20 0 -14 -5 -22 -11 -18 -6 4
-7 1 -2 -6 10 -17 13 -71 3 -71 -4 0 -5 -7 -2 -15 4 -8 11 -12 16 -9 6 4 5 -2
-1 -14 -6 -12 -7 -23 -2 -26 5 -3 12 -26 16 -51 3 -26 13 -49 21 -52 11 -4 12
-9 3 -19 -6 -8 -7 -14 -2 -14 5 0 15 -16 23 -35 8 -19 18 -35 22 -35 5 0 6 -5
3 -10 -3 -6 1 -13 9 -16 9 -3 13 -10 10 -15 -3 -5 0 -9 6 -9 6 0 9 -4 6 -8 -3
-5 4 -18 14 -30 11 -12 20 -26 20 -32 0 -5 6 -9 13 -7 6 1 11 -4 10 -10 -2 -7
0 -12 5 -10 4 1 28 -19 53 -45 25 -27 51 -48 57 -48 6 0 21 -10 33 -22 12 -13
18 -16 14 -8 -8 13 -7 13 11 0 10 -8 22 -19 26 -25 5 -6 8 -6 8 0 0 5 7 0 15
-11 9 -14 23 -20 40 -19 14 2 25 0 25 -4 0 -4 10 -7 22 -8 11 -1 24 -7 28 -14
6 -8 9 -8 13 2 4 10 6 9 6 -3 1 -11 6 -15 16 -12 9 4 15 0 15 -7 0 -10 3 -10
8 -3 9 13 42 14 42 1 0 -5 7 -4 15 3 10 9 15 9 15 1 0 -6 5 -11 11 -11 5 0 8
4 5 9 -5 8 17 8 34 0 16 -7 66 -3 72 6 5 6 8 5 8 -3 0 -9 5 -10 16 -4 9 5 25
7 35 5 14 -4 19 0 19 13 0 12 3 15 8 8 4 -6 16 -9 27 -7 11 3 28 5 37 6 9 1
14 5 12 9 -3 4 4 8 16 8 12 0 18 4 15 11 -4 6 0 9 11 7 11 -2 18 2 17 9 -2 7
6 10 17 8 13 -2 20 2 20 11 0 8 3 13 8 12 4 -1 30 9 57 23 43 21 55 23 78 14
15 -6 24 -14 21 -18 -4 -4 -2 -7 5 -7 7 0 9 -4 6 -10 -3 -5 -1 -10 5 -10 6 0
8 -4 5 -10 -3 -5 -1 -10 5 -10 6 0 15 -10 20 -22 7 -19 9 -19 9 -5 1 10 5 16
10 12 6 -3 10 82 9 223 -1 215 -2 228 -19 229 -11 1 -19 -3 -19 -8 0 -6 -4 -8
-9 -5 -4 3 -7 -7 -7 -22 1 -15 -3 -33 -9 -41 -7 -11 -7 -13 1 -8 6 3 11 0 11
-8 0 -8 -5 -11 -10 -8 -6 4 -8 -3 -5 -15 4 -12 3 -22 -1 -22 -4 0 -14 -16 -23
-35 -9 -20 -11 -32 -4 -29 6 3 3 -1 -6 -9 -10 -8 -18 -20 -18 -26 0 -7 -5 -9
-12 -5 -7 4 -8 3 -4 -4 4 -6 -2 -19 -13 -29 -11 -9 -18 -20 -15 -25 3 -4 1 -8
-4 -8 -13 0 -53 -36 -47 -42 3 -3 -11 -13 -30 -24 -19 -10 -35 -23 -35 -28 0
-5 -3 -6 -7 -3 -3 4 -15 -1 -26 -10 -15 -13 -19 -14 -13 -3 7 13 6 13 -6 0 -7
-8 -20 -16 -28 -18 -8 -2 -16 -7 -18 -12 -2 -5 -10 -6 -18 -3 -8 3 -14 0 -14
-7 0 -6 -4 -9 -9 -5 -5 3 -13 0 -17 -6 -4 -8 -9 -7 -15 2 -5 8 -9 9 -9 3 0
-11 -52 -10 -71 1 -5 4 -9 1 -9 -5 0 -7 -6 -8 -19 -1 -10 6 -21 7 -25 4 -11
-11 -46 -13 -46 -3 0 6 -5 10 -11 10 -5 0 -7 -6 -4 -12 4 -7 -2 -2 -13 11 -14
17 -21 20 -27 11 -5 -8 -10 -8 -14 -2 -3 5 -15 12 -26 14 -10 1 -27 10 -36 18
-38 33 -49 40 -59 40 -6 0 -8 5 -5 10 3 6 -1 10 -9 10 -15 0 -21 13 -16 35 1
5 -2 7 -6 3 -10 -11 -56 54 -49 70 3 8 0 10 -7 6 -8 -5 -9 -2 -5 9 4 11 1 17
-7 17 -8 0 -17 7 -20 16 -4 9 -2 13 5 8 6 -4 6 3 -2 17 -7 13 -14 29 -15 34
-2 6 -5 20 -8 33 -3 13 -7 31 -10 40 -3 9 -8 46 -11 82 -4 36 -11 69 -15 74
-5 5 -6 16 -2 25 9 20 9 42 -1 59 -5 6 -4 12 0 12 5 0 9 9 9 20 0 11 -4 20 -8
20 -5 0 -5 8 -1 18 10 21 10 43 0 59 -4 6 -3 14 3 18 6 4 8 11 5 16 -4 5 -2 9
3 9 6 0 8 9 5 20 -3 11 -1 20 3 20 5 0 8 20 7 45 0 25 3 48 8 51 5 3 7 10 4
15 -4 5 -1 9 6 9 10 0 10 3 2 11 -9 9 -8 18 3 35 9 13 15 24 15 26 -2 13 13
48 21 48 6 0 8 7 4 15 -3 8 -1 15 4 15 5 0 16 15 25 34 9 19 23 37 31 40 9 3
12 10 9 16 -3 5 1 10 10 10 10 0 13 5 9 12 -5 8 -2 9 12 4 10 -4 15 -4 11 0
-9 9 63 55 110 71 17 6 34 9 37 6 3 -4 6 -1 6 5 0 7 10 8 30 2 18 -5 32 -5 36
1 3 6 19 8 35 5 18 -3 29 0 29 7 0 8 3 8 8 -1 5 -6 19 -12 33 -11 13 0 38 -2
54 -6 17 -3 36 -6 43 -7 6 -1 12 -6 12 -12 0 -6 5 -4 10 4 6 9 10 10 10 3 0
-6 9 -15 20 -18 11 -4 18 -10 15 -15 -3 -4 4 -6 15 -3 11 3 20 0 20 -6 0 -6 5
-11 11 -11 7 0 18 -8 26 -17 9 -11 11 -12 7 -3 -4 8 10 -2 31 -22 22 -21 44
-38 50 -38 5 0 3 -5 -5 -10 -13 -8 -13 -10 2 -10 9 0 20 -9 23 -20 3 -11 11
-20 16 -20 5 0 9 -7 9 -15 0 -8 5 -15 11 -15 5 0 8 -4 4 -9 -3 -5 3 -17 12
-27 10 -10 17 -19 16 -21 -2 -2 -3 -4 -2 -5 0 -2 3 -13 5 -25 2 -13 6 -33 8
-45 2 -13 5 -25 6 -28 1 -3 2 -9 1 -13 -1 -5 3 -6 9 -2 5 3 10 2 10 -3 0 -5 6
-9 14 -9 11 0 14 38 14 212 0 230 3 216 -48 206 -3 -1 2 -6 10 -11 13 -8 13
-10 -2 -10 -9 0 -20 -5 -24 -12 -5 -7 -2 -8 7 -3 8 4 4 -2 -7 -15 -31 -32 -83
-29 -157 11 -34 18 -65 37 -68 42 -4 5 -12 6 -18 3 -6 -4 -11 -3 -11 1 0 5 -9
14 -21 21 -17 11 -20 11 -13 0 6 -11 5 -11 -9 0 -9 8 -21 11 -26 8 -5 -4 -13
-1 -17 5 -5 8 -3 9 6 4 8 -5 11 -4 7 2 -3 5 -20 8 -36 7 -17 -1 -33 1 -35 5
-3 4 -20 6 -38 4 -40 -5 -43 -5 -91 -1 -21 2 -48 -2 -60 -9z"/>
<path d="M386 2554 c-10 -25 -7 -37 7 -31 8 3 20 1 27 -3 9 -6 19 -2 28 8 7 9
10 11 6 3 -5 -11 -2 -13 13 -9 12 3 27 2 34 -3 8 -4 19 -3 28 4 11 9 15 9 18
0 2 -7 10 -10 18 -7 8 3 22 1 32 -5 10 -6 14 -11 8 -11 -10 0 -13 -56 -3 -66
4 -3 2 -19 -2 -35 -6 -20 -5 -29 3 -29 8 0 8 -3 -1 -12 -8 -8 -9 -15 -1 -25 9
-9 8 -17 -1 -28 -9 -11 -9 -15 -1 -15 7 0 9 -5 5 -12 -11 -18 -12 -48 -2 -48
5 0 4 -9 -2 -20 -6 -12 -7 -20 -1 -20 6 0 6 -11 1 -30 -6 -20 -5 -30 2 -30 7
0 7 -4 -1 -13 -8 -10 -7 -17 1 -25 8 -8 8 -15 -2 -27 -9 -11 -9 -15 -1 -15 7
0 9 -5 5 -12 -11 -18 -12 -48 -2 -48 5 0 4 -9 -2 -20 -7 -13 -7 -20 -1 -20 7
0 7 -9 1 -25 -5 -14 -6 -25 -1 -25 12 0 9 -33 -4 -42 -6 -5 -5 -8 4 -8 11 0
11 -3 1 -15 -7 -9 -8 -15 -2 -15 12 0 10 -33 -3 -42 -6 -5 -5 -8 4 -8 11 0 11
-3 1 -15 -7 -9 -8 -15 -2 -15 12 0 10 -33 -3 -42 -6 -5 -5 -8 4 -8 11 0 11 -3
1 -15 -7 -9 -8 -15 -2 -15 12 0 10 -33 -3 -42 -6 -5 -5 -8 4 -8 11 0 11 -3 1
-15 -7 -9 -8 -15 -2 -15 12 0 10 -33 -3 -42 -6 -5 -5 -8 4 -8 11 0 11 -3 1
-15 -7 -9 -8 -15 -2 -15 12 0 10 -33 -3 -42 -6 -5 -5 -8 4 -8 11 0 11 -3 1
-15 -7 -9 -8 -15 -2 -15 12 0 10 -33 -3 -42 -6 -5 -5 -8 3 -8 10 0 10 -5 1
-21 -8 -16 -8 -20 1 -14 9 6 9 3 1 -12 -6 -11 -8 -23 -4 -26 9 -10 -24 -37
-47 -37 -12 0 -19 -4 -16 -9 4 -5 -3 -7 -14 -4 -13 3 -20 0 -20 -8 0 -9 -3
-10 -8 -4 -9 13 -42 16 -42 3 0 -5 -6 -6 -12 -1 -41 25 -77 -4 -43 -35 11 -11
15 -12 10 -3 -6 11 -3 13 13 9 12 -4 20 -2 16 3 -3 5 0 9 5 9 6 0 11 -8 11
-17 0 -11 3 -14 8 -8 8 12 22 13 40 2 7 -5 12 -4 12 2 0 13 22 10 32 -4 5 -6
8 -5 8 4 0 11 3 11 17 0 9 -8 14 -9 10 -3 -4 7 5 11 23 11 16 0 27 -3 25 -7
-2 -3 5 -6 15 -6 10 0 17 4 14 8 -2 4 5 6 16 5 11 -1 20 -6 20 -12 0 -6 3 -7
8 0 10 14 45 16 54 2 6 -9 8 -9 8 1 0 7 4 11 9 7 5 -3 13 -1 16 5 5 8 11 7 21
-1 11 -9 14 -8 15 7 1 14 3 13 9 -6 6 -17 8 -19 9 -7 1 14 5 16 20 7 16 -8 19
-7 16 8 -2 9 -4 20 -4 23 -1 9 -44 5 -60 -5 -7 -5 -16 -4 -20 1 -3 6 -18 9
-33 9 -16 -1 -28 1 -28 4 0 3 -12 6 -26 7 -14 0 -31 7 -38 13 -8 10 -8 11 4 6
10 -5 10 -3 -2 6 -17 14 -34 133 -17 123 4 -3 4 8 -1 25 -6 21 -5 30 3 30 8 0
8 3 2 8 -5 4 -10 25 -10 47 0 22 5 43 10 47 7 5 7 8 0 8 -5 0 -10 11 -10 25 0
14 5 25 10 25 7 0 7 3 0 8 -5 4 -10 25 -10 47 0 22 5 43 10 47 7 5 7 8 0 8 -5
0 -10 11 -10 25 0 14 5 25 10 25 7 0 7 3 0 8 -5 4 -10 25 -10 47 0 22 5 43 10
47 6 5 5 8 -3 8 -10 0 -10 5 -1 21 6 12 7 19 1 15 -6 -3 -9 5 -8 19 0 14 4 25
9 25 4 0 7 5 7 11 0 5 -5 7 -11 3 -8 -4 -9 1 -4 16 5 17 4 21 -6 16 -8 -4 -6
-1 4 7 17 15 24 33 8 23 -5 -3 -8 5 -7 19 0 14 4 25 9 25 4 0 7 5 7 11 0 5 -4
8 -9 5 -5 -3 -8 5 -7 19 0 14 4 25 9 25 4 0 7 4 7 10 0 5 -8 6 -17 3 -16 -6
-16 -5 -5 10 8 9 11 21 7 27 -3 5 -1 10 4 10 6 0 11 5 11 11 0 5 -5 7 -11 3
-8 -4 -9 1 -4 16 5 17 4 21 -6 16 -8 -4 -6 -1 4 7 18 15 24 33 7 22 -9 -6 -5
59 5 75 3 5 1 11 -4 15 -6 3 -7 13 -4 22 5 12 3 14 -8 8 -11 -7 -12 -6 -2 6 6
8 12 19 13 24 3 20 11 19 17 -3 3 -12 9 -19 14 -16 5 3 9 -2 9 -10 0 -9 5 -16
10 -16 6 0 10 -7 10 -16 0 -8 5 -12 10 -9 6 3 10 2 10 -2 0 -5 11 -20 24 -35
14 -14 22 -29 18 -33 -4 -4 -1 -5 7 -3 8 2 20 -7 26 -19 7 -13 15 -20 18 -16
4 3 7 0 7 -8 0 -8 9 -21 19 -29 11 -7 18 -17 15 -22 -3 -4 1 -8 8 -8 7 0 18
-10 23 -22 6 -13 16 -22 23 -20 7 1 12 -6 12 -16 0 -9 9 -23 20 -30 11 -7 20
-19 20 -26 0 -8 9 -18 20 -21 11 -3 20 -9 20 -13 0 -15 47 -61 55 -54 5 4 5 2
2 -5 -4 -6 -1 -18 7 -26 8 -8 12 -18 8 -22 -4 -5 -2 -5 5 -2 6 4 20 -6 32 -25
11 -18 28 -40 38 -49 10 -9 34 -36 53 -59 61 -75 87 -100 95 -92 5 4 5 2 2 -4
-4 -7 7 -27 24 -45 17 -19 45 -50 62 -68 18 -19 25 -31 17 -27 -8 5 2 -6 23
-24 20 -17 35 -36 32 -41 -4 -5 2 -9 11 -9 10 0 15 -3 12 -6 -3 -3 9 -21 28
-39 19 -19 34 -39 34 -45 0 -5 7 -10 16 -10 10 0 14 -6 11 -14 -4 -9 2 -17 14
-21 10 -4 19 -12 19 -19 0 -7 14 -25 30 -39 17 -15 30 -31 30 -36 0 -5 9 -12
20 -16 11 -3 19 -12 17 -18 -1 -7 4 -11 11 -9 6 1 11 -4 10 -10 -3 -12 1 -13
36 -9 8 0 13 13 13 34 -1 18 2 40 6 49 3 10 3 19 -1 22 -7 4 -8 114 -2 141 1
6 1 12 0 15 -7 17 -4 88 4 83 5 -3 6 -1 2 6 -10 16 -12 94 -2 109 4 7 3 12 -2
12 -10 0 -9 30 2 48 4 6 3 12 -1 12 -10 0 -9 72 1 89 4 6 3 11 -1 11 -5 0 -9
9 -10 20 -1 11 2 18 8 15 5 -4 6 3 1 17 -10 27 -9 39 1 56 5 6 4 12 0 12 -5 0
-9 9 -10 20 -1 11 2 18 7 15 4 -3 4 11 0 29 -5 22 -3 39 3 45 7 7 7 11 1 11
-5 0 -10 9 -11 20 -1 11 2 18 7 15 4 -3 4 11 0 29 -5 22 -3 39 3 45 8 8 8 11
-1 11 -14 0 -12 21 3 32 7 5 7 8 0 8 -12 0 -13 169 -1 188 4 7 3 12 -1 12 -5
0 -9 11 -9 24 0 14 4 22 10 19 5 -4 7 0 4 9 -4 8 2 20 14 27 16 10 19 10 12
-1 -6 -10 -5 -10 7 -2 22 17 87 25 93 11 2 -7 5 -3 5 7 1 20 1 20 16 0 8 -10
15 -14 15 -7 0 6 9 10 20 8 11 -2 18 0 15 5 -3 4 1 11 7 14 7 4 3 4 -9 2 -13
-2 -26 1 -30 6 -4 7 -1 8 8 3 8 -5 11 -4 6 1 -11 12 -58 13 -50 1 4 -6 1 -7
-8 -1 -21 13 -39 14 -39 1 0 -8 -3 -8 -8 -2 -10 14 -52 15 -52 1 0 -6 -4 -6
-9 2 -4 8 -12 14 -16 14 -4 0 -12 -6 -16 -14 -7 -11 -9 -11 -9 1 0 10 -3 11
-13 2 -8 -6 -17 -7 -21 -3 -11 10 -30 9 -38 -2 -4 -6 -11 -6 -20 0 -12 9 -29
11 -43 4 -13 -7 -31 -5 -42 3 -9 6 -13 6 -13 -2 0 -6 -5 -11 -11 -11 -5 0 -8
4 -5 9 7 10 -9 8 -36 -3 -24 -11 -12 -35 14 -28 15 4 19 2 13 -7 -6 -10 -3
-11 12 -2 11 6 23 7 27 4 10 -11 56 -9 56 2 0 5 4 4 9 -3 4 -8 12 -13 17 -13
21 2 44 -11 44 -25 0 -8 5 -14 11 -14 8 0 8 -5 -1 -15 -7 -9 -8 -15 -2 -15 12
0 10 -33 -3 -42 -6 -5 -5 -8 2 -8 13 0 10 -70 -3 -92 -5 -8 -1 -9 12 -5 18 7
18 7 0 -8 -11 -8 -15 -15 -9 -15 13 0 12 -38 -1 -59 -5 -7 -4 -16 2 -20 10 -6
9 -61 -2 -79 -3 -6 -2 -13 3 -16 11 -7 9 -25 -3 -45 -5 -8 -4 -16 2 -20 12 -8
10 -64 -3 -73 -6 -5 -6 -8 1 -8 7 0 11 -11 10 -25 0 -14 -5 -25 -10 -25 -5 0
-4 -6 1 -12 11 -16 11 -58 -1 -77 -5 -8 -4 -16 2 -20 10 -6 9 -61 -2 -79 -3
-6 -1 -14 5 -18 8 -4 7 -9 -2 -15 -9 -6 -10 -9 -2 -9 14 0 13 -40 -2 -40 -6 0
-7 -3 0 -8 19 -13 14 -40 -6 -35 -10 3 -17 9 -14 13 3 4 -2 10 -10 14 -8 3
-15 10 -15 16 0 5 -21 32 -47 59 -55 56 -87 92 -93 106 -3 5 -17 23 -32 40
-15 16 -43 48 -62 69 -19 22 -32 44 -29 49 3 6 1 7 -4 4 -6 -4 -14 0 -17 9 -3
8 -10 12 -16 9 -5 -3 -10 -2 -10 4 0 6 -11 22 -25 36 -14 14 -23 25 -20 25 7
0 -2 11 -67 82 -26 28 -44 56 -41 61 3 6 1 7 -5 3 -7 -4 -12 -2 -12 4 0 6 -5
8 -10 5 -6 -4 -10 -3 -9 2 4 21 -2 33 -16 33 -8 0 -14 6 -13 13 2 6 -3 11 -9
10 -7 -2 -15 8 -19 22 -3 14 -10 22 -15 19 -5 -3 -14 6 -20 20 -7 14 -16 23
-22 19 -6 -3 -7 -1 -4 4 8 13 -38 64 -49 55 -4 -4 -4 1 -1 11 4 12 1 17 -10
17 -9 0 -14 3 -10 6 3 3 -16 27 -42 52 -29 28 -46 53 -43 62 3 8 1 12 -3 7 -5
-4 -17 0 -27 10 -14 13 -18 13 -18 2 0 -11 -2 -12 -9 -1 -4 8 -12 14 -16 14
-4 0 -12 -6 -16 -14 -5 -7 -9 -8 -9 -2 0 6 -7 11 -15 11 -8 0 -15 -5 -15 -11
0 -6 -4 -5 -9 2 -4 8 -12 14 -16 14 -4 0 -12 -6 -16 -14 -5 -7 -9 -8 -9 -2 0
14 -30 14 -30 0 0 -6 -4 -5 -9 2 -4 8 -12 14 -16 14 -4 0 -12 -6 -16 -14 -5
-7 -9 -8 -9 -2 0 14 -30 14 -30 0 0 -7 -3 -7 -8 -1 -10 14 -32 17 -32 5 0 -5
-5 -10 -11 -10 -5 0 -8 4 -5 8 2 4 -11 8 -30 8 -23 0 -33 -4 -30 -13 3 -7 -1
-10 -9 -6 -8 3 -13 8 -11 12 3 4 -6 7 -20 7 -18 0 -23 -4 -19 -15 4 -13 3 -13
-8 1 -12 15 -14 15 -25 0 -11 -16 -11 -16 -6 1 8 21 -2 23 -10 1z"/>
<path d="M228 773 c-79 -43 -125 -141 -115 -242 10 -92 67 -146 159 -150 88
-3 141 26 179 101 10 21 19 40 19 43 0 3 -20 5 -45 5 -31 0 -45 -4 -45 -13 0
-20 -41 -54 -73 -62 -40 -10 -84 11 -96 47 -33 93 17 209 95 224 47 9 74 -4
89 -41 14 -32 26 -35 88 -26 12 2 8 28 -9 65 -36 74 -157 98 -246 49z"/>
<path d="M3066 790 c-103 -32 -122 -161 -28 -206 19 -9 40 -17 46 -18 70 -12
104 -43 90 -80 -21 -54 -141 -42 -154 14 -5 21 -12 25 -47 26 -42 1 -42 1 -37
-33 6 -46 23 -72 64 -92 82 -42 212 -16 245 49 44 84 1 157 -102 176 -75 14
-105 57 -61 88 43 31 118 10 118 -32 0 -7 17 -12 44 -12 48 0 50 3 27 58 -24
57 -124 87 -205 62z"/>
<path d="M3685 778 c-14 -43 -10 -53 24 -56 39 -4 48 3 55 41 4 26 3 27 -35
27 -23 0 -41 -5 -44 -12z"/>
<path d="M2114 725 c-6 -41 -9 -45 -34 -45 -22 0 -29 -6 -32 -25 -4 -21 -1
-25 18 -25 28 0 28 -3 9 -95 -8 -38 -15 -80 -15 -92 0 -30 37 -53 86 -53 39 0
42 2 46 30 4 26 1 30 -19 30 -31 0 -33 15 -14 112 12 64 14 67 44 70 22 2 31
9 33 26 3 18 -1 22 -22 22 -25 0 -26 1 -20 45 l7 45 -40 0 c-40 0 -40 0 -47
-45z"/>
<path d="M603 670 c-51 -31 -94 -114 -87 -167 1 -7 2 -22 3 -33 0 -11 13 -33
29 -50 60 -67 193 -45 240 39 42 73 34 170 -16 206 -37 27 -128 30 -169 5z
m113 -55 c40 -27 11 -155 -39 -171 -76 -24 -109 76 -51 154 27 35 57 41 90 17z"/>
<path d="M998 672 c-26 -14 -35 -15 -31 -5 4 9 -5 13 -35 13 -43 0 -38 8 -58
-95 -2 -11 -12 -60 -23 -108 l-19 -88 41 3 c45 3 46 5 62 113 10 62 36 109 68
120 46 15 57 -9 40 -87 -7 -35 -16 -82 -19 -105 l-6 -43 39 0 40 0 12 70 c7
38 13 73 13 77 0 19 39 81 53 87 52 20 68 -9 50 -88 -8 -32 -16 -78 -20 -102
l-6 -44 39 0 39 0 22 114 c26 128 20 162 -30 180 -32 11 -93 0 -114 -20 -13
-14 -18 -13 -41 5 -33 26 -69 27 -116 3z"/>
<path d="M1520 683 c-8 -3 -23 -13 -33 -22 -15 -13 -18 -13 -15 -1 5 24 -69
27 -76 3 -4 -17 -43 -200 -52 -253 -3 -14 -9 -41 -14 -60 -16 -56 -13 -60 29
-60 38 0 39 1 46 43 4 23 11 52 16 65 l9 23 22 -21 c29 -27 101 -24 141 6 64
48 95 170 57 232 -27 44 -81 63 -130 45z m45 -67 c23 -17 27 -80 7 -123 -36
-76 -134 -66 -126 15 1 15 2 34 3 43 1 24 56 79 78 79 11 0 27 -6 38 -14z"/>
<path d="M2350 679 c-69 -28 -115 -117 -100 -197 13 -75 62 -108 146 -99 60 6
85 20 108 58 22 37 21 39 -22 39 -26 0 -45 -7 -57 -20 -10 -11 -29 -20 -42
-20 -28 0 -65 35 -61 58 3 14 19 17 111 20 l107 3 0 40 c0 40 -12 72 -36 96
-31 31 -104 42 -154 22z m91 -59 c10 -6 19 -20 19 -30 0 -18 -7 -20 -65 -20
-62 0 -65 1 -55 20 20 37 63 50 101 30z"/>
<path d="M2583 540 l-29 -150 37 0 c42 0 38 -7 70 129 16 71 48 105 94 99 31
-4 34 -2 40 30 3 19 4 36 1 39 -11 11 -78 -9 -98 -29 l-21 -21 7 27 c6 25 5
26 -32 26 l-39 0 -30 -150z"/>
<path d="M3405 676 c-106 -47 -136 -226 -47 -278 38 -22 130 -18 165 8 30 22
60 70 53 83 -11 17 -62 5 -88 -22 -30 -30 -55 -34 -83 -13 -41 30 -9 160 42
172 31 8 61 -4 68 -27 9 -27 86 -29 82 -1 -13 75 -110 115 -192 78z"/>
<path d="M3865 683 c-53 -14 -114 -109 -109 -170 1 -13 2 -33 3 -44 0 -12 17
-36 36 -54 30 -29 41 -33 87 -32 66 0 92 9 123 44 35 40 32 53 -13 53 -25 0
-43 -7 -55 -20 -33 -39 -107 -11 -107 40 0 19 7 20 110 20 l110 0 0 41 c0 45
-21 89 -52 108 -22 14 -103 23 -133 14z m86 -63 c10 -6 19 -20 19 -30 0 -18
-7 -20 -65 -20 -62 0 -65 1 -55 20 20 37 63 50 101 30z"/>
<path d="M4228 672 c-26 -14 -35 -15 -31 -5 4 9 -5 13 -35 13 -39 0 -40 -1
-47 -42 -4 -24 -9 -47 -10 -53 -6 -27 -26 -125 -26 -130 0 -2 -4 -18 -9 -35
-9 -30 -8 -30 30 -30 44 0 46 5 70 132 13 65 46 108 84 108 22 0 52 -30 42
-41 -2 -2 -7 -20 -10 -39 -3 -20 -12 -64 -20 -98 l-14 -63 41 3 c40 3 41 3 53
58 37 159 38 195 5 221 -29 24 -77 24 -123 1z"/>
<path d="M4525 676 c-43 -19 -74 -57 -89 -107 -22 -76 -6 -143 42 -171 38 -23
129 -19 164 7 31 23 62 71 54 84 -11 17 -62 5 -88 -22 -30 -30 -69 -35 -88
-12 -32 38 1 160 47 171 30 8 73 -10 73 -31 0 -11 11 -15 41 -15 40 0 41 1 34
27 -9 37 -24 53 -62 70 -41 16 -89 16 -128 -1z"/>
<path d="M4840 679 c-42 -17 -80 -61 -94 -110 -35 -117 26 -198 140 -186 60 6
85 20 108 58 22 37 21 39 -22 39 -25 0 -43 -7 -55 -20 -33 -39 -107 -11 -107
40 0 19 7 20 110 20 l110 0 0 40 c0 51 -20 90 -57 111 -33 18 -98 22 -133 8z
m98 -61 c7 -7 12 -20 12 -30 0 -15 -9 -18 -65 -18 -62 0 -65 1 -55 20 20 37
82 54 108 28z"/>
<path d="M1745 668 c-2 -7 -7 -31 -11 -53 -4 -22 -9 -44 -10 -50 -11 -38 -17
-75 -16 -110 0 -71 67 -96 144 -55 29 15 36 16 32 5 -5 -12 3 -15 35 -15 23 0
41 3 42 8 1 8 3 18 18 93 6 30 14 69 17 85 3 16 9 46 14 67 l8 38 -41 -3 -41
-3 -18 -89 c-20 -100 -37 -133 -73 -142 -46 -12 -58 1 -52 54 4 26 9 58 12 72
3 14 8 41 11 60 3 19 8 38 11 43 2 4 -14 7 -37 7 -24 0 -42 -5 -45 -12z"/>
<path d="M3651 618 c-7 -35 -12 -66 -12 -70 0 -4 -5 -22 -10 -40 -5 -18 -12
-49 -15 -68 -3 -19 -8 -38 -11 -42 -2 -5 14 -8 37 -8 41 0 45 4 54 50 9 50 46
215 51 228 3 8 -8 12 -38 12 l-43 0 -13 -62z"/>
</g>
</svg>
